<svg xml:space="preserve" viewBox="491.93898762654663 320.64048 293.7232845894263 74.88" version="1.1" xmlns:xlink="http://www.w3.org/1999/xlink" xmlns="http://www.w3.org/2000/svg" style="max-height: 500px" width="293.7232845894263" height="74.88">
<desc>Created with Fabric.js 5.2.4</desc>
<defs>
</defs>
<g id="abaa78ee-9456-40d4-9503-08df6cafcb63" transform="matrix(Infinity NaN NaN Infinity 0 0)">
</g>
<g id="5105effb-b98a-4350-97d2-95b30773feed" transform="matrix(1 0 0 1 640 360)">
<rect height="720" width="1280" ry="0" rx="0" y="-360" x="-640" style="stroke: none; stroke-width: 1; stroke-dasharray: none; stroke-linecap: butt; stroke-dashoffset: 0; stroke-linejoin: miter; stroke-miterlimit: 4; fill: rgb(255,255,255); fill-rule: nonzero; opacity: 1; visibility: hidden;"/>
</g>
<g transform="matrix(0.67 0 0 0.67 640 360)">
<g style="">
		<g transform="matrix(0.96 0 0 0.96 -184.96 0.1)">
<path stroke-linecap="round" d="M 30.673 0 L 26.676 0 L 26.676 76.41 C 22.573 74.073 15.990999999999998 74.497 9.936999999999998 77.923 C 2.012 82.406 -1.996 90.314 0.986 95.587 C 3.9690000000000003 100.858 12.811 101.49900000000001 20.736 97.015 C 26.585 93.706 30.289 88.536 30.634999999999998 83.931 L 30.673 82.88499999999999 L 30.673 26.978 C 57.052 33.066 53.653999999999996 60.367000000000004 44.693 74.939 L 45.661 74.939 C 71.639 27.978 30.673 29.976 30.673 0 z" transform="translate(-27.14, -50)" style="stroke: none; stroke-width: 1; stroke-dasharray: none; stroke-linecap: butt; stroke-dashoffset: 0; stroke-linejoin: miter; stroke-miterlimit: 4; fill: rgb(255,255,255); fill-rule: nonzero; opacity: 1;"/>
</g>
		<g transform="matrix(1.87 0 0 1.87 33.83 4.44)">
<path stroke-linecap="round" d="M 19.62 13.1 C 19.64 13.08 19.7 13.06 19.76 13.06 C 20 13.06 20.42 13.26 20.42 13.4 C 20.42 12.64 15.14 24.96 7.320000000000002 24.96 C 2.440000000000002 24.96 1.7763568394002505e-15 22.400000000000002 1.7763568394002505e-15 19.42 C 1.7763568394002505e-15 16.1 3.040000000000002 12.240000000000002 9.060000000000002 10.840000000000002 C 7.060000000000002 10.040000000000001 6.140000000000002 8.540000000000003 6.140000000000002 6.920000000000002 C 6.140000000000002 3.7200000000000015 9.660000000000002 1.7763568394002505e-15 15.440000000000003 1.7763568394002505e-15 C 19.26 1.7763568394002505e-15 20.560000000000002 1.7200000000000017 20.560000000000002 3.600000000000002 C 20.560000000000002 5.920000000000002 18.62 8.480000000000002 17.040000000000003 8.480000000000002 C 16.240000000000002 8.480000000000002 14.940000000000003 7.420000000000002 14.940000000000003 6.900000000000002 C 14.940000000000003 6.740000000000002 15.080000000000004 6.620000000000002 15.420000000000003 6.620000000000002 C 16.880000000000003 6.620000000000002 18.140000000000004 4.660000000000002 18.140000000000004 3.100000000000002 C 18.140000000000004 2.100000000000002 17.600000000000005 1.2800000000000018 16.260000000000005 1.2800000000000018 C 13.120000000000005 1.2800000000000018 10.040000000000006 4.800000000000002 10.040000000000006 7.440000000000002 C 10.040000000000006 9.020000000000003 11.160000000000007 10.300000000000002 14.040000000000006 10.300000000000002 C 14.360000000000007 10.300000000000002 14.460000000000006 10.480000000000002 14.460000000000006 10.660000000000002 C 14.460000000000006 11.300000000000002 13.340000000000007 12.560000000000002 12.460000000000006 12.560000000000002 C 6.7800000000000065 12.560000000000002 3.4800000000000058 16.96 3.4800000000000058 20.220000000000002 C 3.4800000000000058 22.160000000000004 4.640000000000006 23.700000000000003 7.140000000000006 23.700000000000003 C 13.680000000000007 23.700000000000003 19.020000000000007 13.700000000000003 19.620000000000005 13.100000000000003 z M 34.7 13.120000000000001 C 34.720000000000006 13.100000000000001 34.78 13.080000000000002 34.84 13.080000000000002 C 35.080000000000005 13.080000000000002 35.52 13.280000000000001 35.52 13.420000000000002 C 35.52 13.440000000000001 35.5 13.440000000000001 35.5 13.46 C 35.2 13.74 31.98 20.02 30.08 20.02 C 28.56 20.02 27.119999999999997 19.24 27.119999999999997 18.04 C 27.119999999999997 17.5 28.339999999999996 15.04 29.519999999999996 12.98 C 27.519999999999996 15.4 24.619999999999997 19.52 24.619999999999997 19.7 C 24.619999999999997 19.88 24.38 19.96 24.04 19.96 C 23.22 19.96 21.82 19.5 21.82 18.94 C 21.82 18.28 23.64 14.740000000000002 24.96 12.360000000000001 C 22.94 14.740000000000002 19.66 19.520000000000003 19.66 19.700000000000003 C 19.66 19.900000000000002 19.44 19.980000000000004 19.1 19.980000000000004 C 18.28 19.980000000000004 16.86 19.500000000000004 16.86 18.940000000000005 C 16.86 17.980000000000004 20.86 10.620000000000005 21.28 10.180000000000005 C 21.42 10.040000000000004 21.66 10.000000000000005 21.96 10.000000000000005 C 22.8 10.000000000000005 24 10.440000000000005 24 10.800000000000006 C 24 10.700000000000006 23.52 11.560000000000006 22.32 13.860000000000007 C 23.86 11.840000000000007 25.54 10.040000000000006 26.5 10.040000000000006 L 26.5 10.060000000000006 C 26.56 10.040000000000006 26.64 10.040000000000006 26.72 10.040000000000006 C 27.5 10.040000000000006 28.759999999999998 10.720000000000006 28.759999999999998 11.160000000000007 C 28.759999999999998 11.120000000000008 28.299999999999997 11.880000000000008 27.139999999999997 14.140000000000008 C 28.799999999999997 11.980000000000008 30.639999999999997 9.980000000000008 31.639999999999997 9.980000000000008 C 32.3 9.980000000000008 33.72 10.840000000000007 33.72 11.360000000000007 C 33.72 11.440000000000007 33.699999999999996 11.500000000000007 33.64 11.560000000000006 C 33.36 11.840000000000005 30.18 17.360000000000007 30.18 18.540000000000006 C 30.18 18.680000000000007 30.24 18.760000000000005 30.34 18.760000000000005 C 31.32 18.760000000000005 34.4 13.420000000000005 34.7 13.120000000000005 z M 49.760000000000005 13.120000000000001 C 49.78000000000001 13.100000000000001 49.84 13.080000000000002 49.900000000000006 13.080000000000002 C 50.14000000000001 13.080000000000002 50.580000000000005 13.280000000000001 50.580000000000005 13.420000000000002 C 50.580000000000005 13.440000000000001 50.56 13.440000000000001 50.56 13.46 C 50.260000000000005 13.74 47.04 20.02 45.14 20.02 C 43.62 20.02 42.18 19.24 42.18 18.04 C 42.18 17.5 43.4 15.04 44.58 12.98 C 42.58 15.4 39.68 19.52 39.68 19.7 C 39.68 19.88 39.44 19.96 39.1 19.96 C 38.28 19.96 36.88 19.5 36.88 18.94 C 36.88 18.28 38.7 14.740000000000002 40.02 12.360000000000001 C 38 14.740000000000002 34.720000000000006 19.520000000000003 34.720000000000006 19.700000000000003 C 34.720000000000006 19.900000000000002 34.50000000000001 19.980000000000004 34.160000000000004 19.980000000000004 C 33.34 19.980000000000004 31.92 19.500000000000004 31.92 18.940000000000005 C 31.92 17.980000000000004 35.92 10.620000000000005 36.34 10.180000000000005 C 36.480000000000004 10.040000000000004 36.720000000000006 10.000000000000005 37.02 10.000000000000005 C 37.86000000000001 10.000000000000005 39.06 10.440000000000005 39.06 10.800000000000006 C 39.06 10.700000000000006 38.580000000000005 11.560000000000006 37.38 13.860000000000007 C 38.92 11.840000000000007 40.6 10.040000000000006 41.56 10.040000000000006 L 41.56 10.060000000000006 C 41.620000000000005 10.040000000000006 41.7 10.040000000000006 41.78 10.040000000000006 C 42.56 10.040000000000006 43.82 10.720000000000006 43.82 11.160000000000007 C 43.82 11.120000000000008 43.36 11.880000000000008 42.2 14.140000000000008 C 43.86 11.980000000000008 45.7 9.980000000000008 46.7 9.980000000000008 C 47.36 9.980000000000008 48.78 10.840000000000007 48.78 11.360000000000007 C 48.78 11.440000000000007 48.76 11.500000000000007 48.7 11.560000000000006 C 48.42 11.840000000000005 45.24 17.360000000000007 45.24 18.540000000000006 C 45.24 18.680000000000007 45.300000000000004 18.760000000000005 45.4 18.760000000000005 C 46.379999999999995 18.760000000000005 49.46 13.420000000000005 49.76 13.120000000000005 z M 60.38 13.1 C 60.400000000000006 13.08 60.46 13.06 60.52 13.06 C 60.760000000000005 13.06 61.18 13.26 61.18 13.4 C 61.18 13.4 61.18 13.42 61.16 13.44 C 60.879999999999995 13.719999999999999 57.63999999999999 20 55.76 20 C 54.379999999999995 20 53.08 19.38 52.839999999999996 18.36 C 51.99999999999999 19.32 51.13999999999999 20 50.4 20 C 48.66 20 47.98 19.06 47.98 17.740000000000002 C 47.98 14.800000000000002 51.379999999999995 10.000000000000002 53.699999999999996 10.000000000000002 C 55.16 10.000000000000002 55.739999999999995 10.880000000000003 55.94 11.640000000000002 C 56.96 9.920000000000002 56.879999999999995 10.000000000000002 57.54 10.000000000000002 C 58.38 10.000000000000002 59.58 10.460000000000003 59.58 10.820000000000002 C 59.58 10.680000000000001 55.879999999999995 17.12 55.879999999999995 18.520000000000003 C 55.879999999999995 18.660000000000004 55.919999999999995 18.740000000000002 56.019999999999996 18.740000000000002 C 56.99999999999999 18.740000000000002 60.08 13.400000000000002 60.379999999999995 13.100000000000001 z M 50.86000000000001 18.54 C 51.760000000000005 18.54 55.260000000000005 13.299999999999999 55.260000000000005 12.579999999999998 C 55.260000000000005 12.379999999999999 55.28000000000001 11.639999999999999 54.78000000000001 11.639999999999999 C 53.400000000000006 11.639999999999999 50.68000000000001 16.919999999999998 50.68000000000001 18.24 C 50.68000000000001 18.439999999999998 50.74000000000001 18.54 50.86000000000001 18.54 z M 70.86 13.120000000000001 C 70.88 13.100000000000001 70.94 13.080000000000002 71 13.080000000000002 C 71.24 13.080000000000002 71.66 13.280000000000001 71.66 13.420000000000002 C 71.66 13.420000000000002 71.66 13.440000000000001 71.64 13.46 C 71.36 13.74 68.12 20.02 66.24 20.02 C 64.72 20.02 63.279999999999994 19.24 63.279999999999994 18.04 C 63.279999999999994 17.48 64.61999999999999 14.819999999999999 65.83999999999999 12.719999999999999 C 63.69999999999999 15.079999999999998 60.37999999999999 19.52 60.37999999999999 19.7 C 60.37999999999999 19.88 60.139999999999986 19.96 59.79999999999999 19.96 C 58.97999999999999 19.96 57.57999999999999 19.5 57.57999999999999 18.94 C 57.57999999999999 17.96 61.57999999999999 10.620000000000001 61.99999999999999 10.180000000000001 C 62.13999999999999 10.040000000000001 62.379999999999995 9.980000000000002 62.67999999999999 9.980000000000002 C 63.519999999999996 9.980000000000002 64.72 10.440000000000003 64.72 10.800000000000002 C 64.72 10.840000000000002 64.7 10.880000000000003 64.66 10.920000000000002 C 64.5 11.080000000000002 63.5 12.920000000000002 62.519999999999996 14.900000000000002 C 64.39999999999999 12.480000000000002 66.67999999999999 9.980000000000002 67.8 9.980000000000002 C 68.46 9.980000000000002 69.88 10.840000000000002 69.88 11.360000000000003 C 69.88 11.440000000000003 69.86 11.500000000000004 69.8 11.560000000000002 C 69.5 11.840000000000002 66.34 17.340000000000003 66.34 18.540000000000003 C 66.34 18.680000000000003 66.4 18.76 66.5 18.76 C 67.48 18.76 70.56 13.420000000000002 70.86 13.120000000000001 z M 81.18 13.1 C 81.2 13.08 81.26 13.06 81.32000000000001 13.06 C 81.56 13.06 81.98 13.26 81.98 13.4 C 81.98 13.4 81.98 13.42 81.96000000000001 13.44 C 81.68 13.719999999999999 78.44000000000001 20 76.56 20 C 75.14 20 73.78 19.32 73.62 18.24 C 72.76 19.24 71.84 20 71 20 C 70.02 20 68.76 19.6 68.76 17.88 C 68.76 16.36 72.08 10.62 72.52000000000001 10.2 C 72.66000000000001 10.059999999999999 72.9 10 73.20000000000002 10 C 74.04000000000002 10 75.22000000000001 10.46 75.22000000000001 10.8 C 75.22000000000001 10.680000000000001 71.52000000000001 17.1 71.52000000000001 18.52 C 71.52000000000001 18.66 71.58000000000001 18.74 71.68 18.74 C 72.38000000000001 18.74 75.16000000000001 14.239999999999998 76.68 11.779999999999998 C 77.74000000000001 9.939999999999998 77.66000000000001 9.999999999999998 78.34 9.999999999999998 C 79.18 9.999999999999998 80.38000000000001 10.459999999999999 80.38000000000001 10.819999999999999 C 80.38000000000001 10.679999999999998 76.68 17.119999999999997 76.68 18.52 C 76.68 18.66 76.72000000000001 18.74 76.82000000000001 18.74 C 77.80000000000001 18.74 80.88000000000001 13.399999999999999 81.18 13.099999999999998 z M 89.84 13.1 C 89.86 13.08 89.9 13.06 89.96000000000001 13.06 C 90.2 13.06 90.64000000000001 13.26 90.64000000000001 13.4 C 90.64000000000001 13.3 87.16000000000001 20 83.32000000000002 20 C 80.70000000000002 20 79.68000000000002 18.7 79.68000000000002 17.04 C 79.68000000000002 14.079999999999998 82.86000000000003 10 86.04000000000002 10 C 87.78000000000002 10 88.44000000000003 10.78 88.44000000000003 11.82 C 88.44000000000003 13.82 85.94000000000003 16.76 83.88000000000002 16.76 C 83.54000000000002 16.76 83.24000000000002 16.680000000000003 82.94000000000003 16.520000000000003 C 82.82000000000002 16.940000000000005 82.76000000000002 17.340000000000003 82.76000000000002 17.680000000000003 C 82.76000000000002 18.440000000000005 83.06000000000002 18.940000000000005 83.78000000000002 18.940000000000005 C 86.58000000000001 18.940000000000005 89.44000000000001 13.500000000000004 89.84000000000002 13.100000000000005 z M 86.92 11.44 C 85.7 11.44 84.2 13.36 83.38 15.26 C 83.5 15.32 83.61999999999999 15.34 83.75999999999999 15.34 C 85.21999999999998 15.34 87.16 12.62 87.16 11.719999999999999 C 87.16 11.54 87.08 11.44 86.92 11.44 z M 94.13999999999999 5.199999999999999 C 94.27999999999999 5.06 94.51999999999998 4.999999999999999 94.82 4.999999999999999 C 95.66 4.999999999999999 96.86 5.459999999999999 96.86 5.819999999999999 C 96.86 5.859999999999999 96.84 5.8999999999999995 96.8 5.9399999999999995 C 96.48 6.26 90.46 17.16 90.46 18.6 C 90.46 18.700000000000003 90.5 18.740000000000002 90.55999999999999 18.740000000000002 C 91.51999999999998 18.740000000000002 94.61999999999999 13.400000000000002 94.91999999999999 13.100000000000001 C 94.93999999999998 13.080000000000002 94.99999999999999 13.060000000000002 95.05999999999999 13.060000000000002 C 95.29999999999998 13.060000000000002 95.71999999999998 13.260000000000002 95.71999999999998 13.400000000000002 C 95.71999999999998 13.420000000000002 95.71999999999998 13.420000000000002 95.69999999999999 13.440000000000001 C 95.41999999999999 13.72 92.17999999999999 20 90.29999999999998 20 C 88.77999999999999 20 87.33999999999999 19.22 87.33999999999999 18.02 C 87.33999999999999 17.04 93.69999999999999 5.639999999999999 94.13999999999999 5.199999999999999 z M 120.35999999999999 13.08 C 120.37999999999998 13.06 120.43999999999998 13.040000000000001 120.49999999999999 13.040000000000001 C 120.73999999999998 13.040000000000001 121.15999999999998 13.24 121.15999999999998 13.38 C 121.15999999999998 12.620000000000001 115.85999999999999 24.94 108.05999999999999 24.94 C 101.57999999999998 24.94 99.05999999999999 21.8 99.05999999999999 17.740000000000002 C 99.05999999999999 10.360000000000003 107.38 -0.019999999999999574 115.39999999999999 -0.019999999999999574 C 119.61999999999999 -0.019999999999999574 121.22 2.0600000000000005 121.22 4.74 C 121.22 9.52 116.12 16.18 111.92 16.18 C 109.54 16.18 108.58 14.7 108.58 12.82 C 108.58 9.68 111.28 5.44 114.38 5.44 C 115.33999999999999 5.44 116.19999999999999 6.82 116.19999999999999 7.34 C 116.19999999999999 7.46 116.15999999999998 7.52 116.05999999999999 7.52 C 113.03999999999999 7.52 110.51999999999998 11.78 110.51999999999998 13.96 C 110.51999999999998 14.700000000000001 110.81999999999998 15.200000000000001 111.49999999999999 15.200000000000001 C 114.21999999999998 15.200000000000001 118.59999999999998 8.200000000000001 118.59999999999998 4.100000000000001 C 118.59999999999998 2.4000000000000012 117.85999999999999 1.2000000000000015 115.91999999999997 1.2000000000000015 C 110.11999999999998 1.2000000000000015 103.03999999999998 12.040000000000001 103.03999999999998 18.660000000000004 C 103.03999999999998 21.580000000000005 104.41999999999997 23.680000000000003 107.87999999999998 23.680000000000003 C 114.39999999999998 23.680000000000003 119.75999999999998 13.680000000000003 120.35999999999999 13.080000000000004 z M 129.15999999999997 13.14 C 129.17999999999998 13.120000000000001 129.21999999999997 13.100000000000001 129.27999999999997 13.100000000000001 C 129.51999999999998 13.100000000000001 129.95999999999998 13.3 129.95999999999998 13.440000000000001 L 129.95999999999998 13.440000000000001 C 129.85999999999999 13.440000000000001 128.29999999999998 16.8 125.21999999999998 17.78 C 124.13999999999999 19.060000000000002 122.75999999999999 20 121.37999999999998 20 C 119.63999999999999 20 118.91999999999999 18.86 118.91999999999999 17.34 C 118.91999999999999 14.379999999999999 121.67999999999999 10 125.07999999999998 10 C 126.75999999999999 10 127.43999999999998 11.04 127.43999999999998 12.44 C 127.43999999999998 13.54 127.03999999999998 14.86 126.35999999999999 16.08 C 128.05999999999997 15.019999999999998 128.95999999999998 13.339999999999998 129.16 13.139999999999999 z M 125.69999999999999 11.34 C 124.33999999999999 11.34 121.55999999999999 15.98 121.55999999999999 17.86 C 121.55999999999999 18.34 121.74 18.64 122.17999999999999 18.64 C 122.49999999999999 18.64 122.88 18.400000000000002 123.27999999999999 18.02 C 122.87999999999998 17.94 122.67999999999999 17.7 122.67999999999999 17.48 C 122.67999999999999 16.900000000000002 123.39999999999999 17.06 124.17999999999999 16.92 C 125.27999999999999 15.380000000000003 126.24 13.220000000000002 126.24 12.100000000000001 C 126.24 11.64 126.08 11.340000000000002 125.69999999999999 11.340000000000002 z M 133.45999999999998 5.199999999999999 C 133.59999999999997 5.06 133.83999999999997 4.999999999999999 134.14 4.999999999999999 C 134.98 4.999999999999999 136.17999999999998 5.459999999999999 136.17999999999998 5.819999999999999 C 136.17999999999998 5.859999999999999 136.15999999999997 5.8999999999999995 136.11999999999998 5.9399999999999995 C 135.79999999999998 6.26 129.77999999999997 17.16 129.77999999999997 18.6 C 129.77999999999997 18.700000000000003 129.81999999999996 18.740000000000002 129.87999999999997 18.740000000000002 C 130.83999999999997 18.740000000000002 133.93999999999997 13.400000000000002 134.23999999999998 13.100000000000001 C 134.26 13.080000000000002 134.32 13.060000000000002 134.37999999999997 13.060000000000002 C 134.61999999999998 13.060000000000002 135.03999999999996 13.260000000000002 135.03999999999996 13.400000000000002 C 135.03999999999996 13.420000000000002 135.03999999999996 13.420000000000002 135.01999999999995 13.440000000000001 C 134.73999999999995 13.72 131.49999999999994 20 129.61999999999995 20 C 128.09999999999994 20 126.65999999999995 19.22 126.65999999999995 18.02 C 126.65999999999995 17.04 133.01999999999995 5.639999999999999 133.45999999999995 5.199999999999999 z M 144.5 13.1 C 144.52 13.08 144.58 13.06 144.64 13.06 C 144.88 13.06 145.29999999999998 13.26 145.29999999999998 13.4 C 145.29999999999998 13.4 145.29999999999998 13.42 145.27999999999997 13.44 C 144.99999999999997 13.719999999999999 141.75999999999996 20 139.87999999999997 20 C 138.45999999999998 20 137.09999999999997 19.32 136.93999999999997 18.24 C 136.07999999999996 19.24 135.15999999999997 20 134.31999999999996 20 C 133.33999999999997 20 132.07999999999996 19.6 132.07999999999996 17.88 C 132.07999999999996 16.36 135.39999999999995 10.62 135.83999999999995 10.2 C 135.97999999999993 10.059999999999999 136.21999999999994 10 136.51999999999995 10 C 137.35999999999996 10 138.53999999999996 10.46 138.53999999999996 10.8 C 138.53999999999996 10.680000000000001 134.83999999999997 17.1 134.83999999999997 18.52 C 134.83999999999997 18.66 134.89999999999998 18.74 134.99999999999997 18.74 C 135.69999999999996 18.74 138.47999999999996 14.239999999999998 139.99999999999997 11.779999999999998 C 141.05999999999997 9.939999999999998 140.97999999999996 9.999999999999998 141.65999999999997 9.999999999999998 C 142.49999999999997 9.999999999999998 143.69999999999996 10.459999999999999 143.69999999999996 10.819999999999999 C 143.69999999999996 10.679999999999998 139.99999999999997 17.119999999999997 139.99999999999997 18.52 C 139.99999999999997 18.66 140.03999999999996 18.74 140.13999999999996 18.74 C 141.11999999999995 18.74 144.19999999999996 13.399999999999999 144.49999999999997 13.099999999999998 z M 159.54 13.120000000000001 C 159.56 13.100000000000001 159.62 13.080000000000002 159.67999999999998 13.080000000000002 C 159.92 13.080000000000002 160.35999999999999 13.280000000000001 160.35999999999999 13.420000000000002 C 160.35999999999999 13.440000000000001 160.33999999999997 13.440000000000001 160.33999999999997 13.46 C 160.03999999999996 13.74 156.81999999999996 20.02 154.92 20.02 C 153.39999999999998 20.02 151.95999999999998 19.24 151.95999999999998 18.04 C 151.95999999999998 17.5 153.17999999999998 15.04 154.35999999999999 12.98 C 152.35999999999999 15.4 149.45999999999998 19.52 149.45999999999998 19.7 C 149.45999999999998 19.88 149.21999999999997 19.96 148.87999999999997 19.96 C 148.05999999999997 19.96 146.65999999999997 19.5 146.65999999999997 18.94 C 146.65999999999997 18.28 148.47999999999996 14.740000000000002 149.79999999999995 12.360000000000001 C 147.77999999999994 14.740000000000002 144.49999999999994 19.520000000000003 144.49999999999994 19.700000000000003 C 144.49999999999994 19.900000000000002 144.27999999999994 19.980000000000004 143.93999999999994 19.980000000000004 C 143.11999999999995 19.980000000000004 141.69999999999993 19.500000000000004 141.69999999999993 18.940000000000005 C 141.69999999999993 17.980000000000004 145.69999999999993 10.620000000000005 146.11999999999992 10.180000000000005 C 146.2599999999999 10.040000000000004 146.49999999999991 10.000000000000005 146.79999999999993 10.000000000000005 C 147.63999999999993 10.000000000000005 148.83999999999992 10.440000000000005 148.83999999999992 10.800000000000006 C 148.83999999999992 10.700000000000006 148.35999999999993 11.560000000000006 147.1599999999999 13.860000000000007 C 148.6999999999999 11.840000000000007 150.3799999999999 10.040000000000006 151.33999999999992 10.040000000000006 L 151.33999999999992 10.060000000000006 C 151.39999999999992 10.040000000000006 151.4799999999999 10.040000000000006 151.55999999999992 10.040000000000006 C 152.33999999999992 10.040000000000006 153.5999999999999 10.720000000000006 153.5999999999999 11.160000000000007 C 153.5999999999999 11.120000000000008 153.1399999999999 11.880000000000008 151.9799999999999 14.140000000000008 C 153.6399999999999 11.980000000000008 155.4799999999999 9.980000000000008 156.4799999999999 9.980000000000008 C 157.1399999999999 9.980000000000008 158.55999999999992 10.840000000000007 158.55999999999992 11.360000000000007 C 158.55999999999992 11.440000000000007 158.5399999999999 11.500000000000007 158.4799999999999 11.560000000000006 C 158.1999999999999 11.840000000000005 155.0199999999999 17.360000000000007 155.0199999999999 18.540000000000006 C 155.0199999999999 18.680000000000007 155.0799999999999 18.760000000000005 155.1799999999999 18.760000000000005 C 156.15999999999988 18.760000000000005 159.2399999999999 13.420000000000005 159.5399999999999 13.120000000000005 z M 169.28 13.08 C 169.3 13.06 169.34 13.040000000000001 169.4 13.040000000000001 C 169.64000000000001 13.040000000000001 170.08 13.260000000000002 170.08 13.38 C 170.08 13.4 170.08 13.4 170.06 13.42 C 169.78 13.72 167 19.98 162.44 19.98 C 162.28 20.02 162.14 20.02 162.02 20.02 C 160.94 20.02 160.22 19.54 159.8 18.98 C 159.4 19.86 159.70000000000002 19.96 158.98000000000002 19.96 C 158.16000000000003 19.96 156.76000000000002 19.5 156.76000000000002 18.94 C 156.76000000000002 17.96 163.3 5.640000000000001 163.74 5.200000000000001 C 163.88 5.060000000000001 164.12 5.000000000000001 164.42000000000002 5.000000000000001 C 165.26000000000002 5.000000000000001 166.44000000000003 5.460000000000001 166.44000000000003 5.800000000000001 C 166.44000000000003 5.86 166.42000000000002 5.9 166.38000000000002 5.94 C 166.26000000000002 6.08 165.12000000000003 8.18 163.82000000000002 10.72 C 164.36 10.280000000000001 164.86 10.020000000000001 165.32000000000002 10.020000000000001 C 167.06000000000003 10.020000000000001 167.74 10.98 167.74 12.280000000000001 C 167.74 13.940000000000001 166.66 16.18 165.32000000000002 17.82 C 167.56000000000003 16.28 169.06000000000003 13.3 169.28000000000003 13.08 z M 160.94 18.38 C 162.32 18.38 165.04 13.099999999999998 165.04 11.78 C 165.04 11.58 164.98 11.479999999999999 164.85999999999999 11.479999999999999 C 164.23999999999998 11.479999999999999 162.39999999999998 13.959999999999999 161.29999999999998 15.739999999999998 C 160.99999999999997 16.38 160.71999999999997 16.959999999999997 160.45999999999998 17.479999999999997 C 160.45999999999998 17.74 160.48 18.379999999999995 160.93999999999997 18.379999999999995 z M 179.6 13.1 C 179.62 13.08 179.68 13.06 179.73999999999998 13.06 C 179.98 13.06 180.39999999999998 13.26 180.39999999999998 13.4 C 180.39999999999998 13.4 180.39999999999998 13.42 180.37999999999997 13.44 C 180.09999999999997 13.719999999999999 176.85999999999996 20 174.97999999999996 20 C 173.55999999999997 20 172.19999999999996 19.32 172.03999999999996 18.24 C 171.17999999999995 19.24 170.25999999999996 20 169.41999999999996 20 C 168.43999999999997 20 167.17999999999995 19.6 167.17999999999995 17.88 C 167.17999999999995 16.36 170.49999999999994 10.62 170.93999999999994 10.2 C 171.07999999999993 10.059999999999999 171.31999999999994 10 171.61999999999995 10 C 172.45999999999995 10 173.63999999999996 10.46 173.63999999999996 10.8 C 173.63999999999996 10.680000000000001 169.93999999999997 17.1 169.93999999999997 18.52 C 169.93999999999997 18.66 169.99999999999997 18.74 170.09999999999997 18.74 C 170.79999999999995 18.74 173.57999999999996 14.239999999999998 175.09999999999997 11.779999999999998 C 176.15999999999997 9.939999999999998 176.07999999999996 9.999999999999998 176.75999999999996 9.999999999999998 C 177.59999999999997 9.999999999999998 178.79999999999995 10.459999999999999 178.79999999999995 10.819999999999999 C 178.79999999999995 10.679999999999998 175.09999999999997 17.119999999999997 175.09999999999997 18.52 C 175.09999999999997 18.66 175.13999999999996 18.74 175.23999999999995 18.74 C 176.21999999999994 18.74 179.29999999999995 13.399999999999999 179.59999999999997 13.099999999999998 z M 187.94 13.059999999999999 C 187.96 13.04 188 13.02 188.06 13.02 C 188.3 13.02 188.74 13.24 188.74 13.36 C 188.74 13.379999999999999 188.74 13.379999999999999 188.72 13.399999999999999 C 188.44 13.7 185.14 20.599999999999998 180.76 20.599999999999998 C 179.04 20.599999999999998 178.39999999999998 19.06 178.39999999999998 17.299999999999997 C 178.39999999999998 15.559999999999997 179.03999999999996 13.579999999999997 179.93999999999997 12.679999999999996 C 179.99999999999997 12.619999999999996 180.07999999999996 12.599999999999996 180.17999999999998 12.599999999999996 C 180.43999999999997 12.599999999999996 180.79999999999998 12.779999999999996 180.81999999999996 12.939999999999996 C 182.01999999999995 12.499999999999996 183.71999999999997 11.619999999999996 184.61999999999998 10.879999999999995 C 185.09999999999997 10.339999999999996 185.61999999999998 9.999999999999995 186.23999999999998 9.999999999999995 C 186.92 9.999999999999995 187.27999999999997 10.679999999999994 187.27999999999997 11.079999999999995 C 187.27999999999997 11.259999999999994 187.21999999999997 11.379999999999995 187.07999999999998 11.379999999999995 C 186.44 11.379999999999995 185.89999999999998 15.159999999999995 184.39999999999998 17.879999999999995 C 186.26 15.919999999999995 187.76 13.259999999999994 187.93999999999997 13.059999999999995 z M 180.11999999999998 14.059999999999999 C 179.73999999999998 14.94 179.53999999999996 16.08 179.53999999999996 17.08 C 179.53999999999996 18.38 179.87999999999997 19.459999999999997 180.53999999999996 19.459999999999997 C 181.35999999999996 19.459999999999997 182.13999999999996 15.559999999999997 183.43999999999997 12.759999999999998 C 182.33999999999997 13.419999999999998 181.03999999999996 14.019999999999998 180.11999999999998 14.059999999999999 z" transform="translate(-94.37, -12.47)" style="stroke: none; stroke-width: 1; stroke-dasharray: none; stroke-linecap: butt; stroke-dashoffset: 0; stroke-linejoin: miter; stroke-miterlimit: 4; fill: rgb(255,255,255); fill-rule: nonzero; opacity: 1;"/>
</g>
</g>
</g>
</svg>